<svg xmlns="http://www.w3.org/2000/svg" width="260" height="64.393" viewBox="0 0 260 64.393">
    <g id="LOGO_NEW" data-name="LOGO NEW" transform="translate(-10.15 -9.22)">
      <path id="Path_211" data-name="Path 211" d="M32.256,49.791V56.7H10.15V20.67h7.268V49.791Z" transform="translate(0 -0.324)" fill="#454241"/>
      <path id="Path_212" data-name="Path 212" d="M65.425,42.2A14.9,14.9,0,0,0,61.451,31.77a13.671,13.671,0,0,0-9.989-4.13c-8.5,0-14.672,6.122-14.672,14.556a14.347,14.347,0,0,0,4.091,10.358,15.575,15.575,0,0,0,11.242,4.2c4.81,0,8.59-1.574,11.262-4.674l-5.276-3.032a9.246,9.246,0,0,1-5.869,1.992c-5.276,0-7.356-2.662-8.172-4.888l-.554-1.506H65.26A18.175,18.175,0,0,0,65.425,42.2Zm-21.96-1.972.389-1.409c.981-3.556,3.653-5.519,7.55-5.519a7.183,7.183,0,0,1,7.375,5.519l.389,1.409Z" transform="translate(-0.755 -0.522)" fill="#454241"/>
      <path id="Path_213" data-name="Path 213" d="M97.858,50.61A14.586,14.586,0,0,1,71.38,42.2a14.609,14.609,0,0,1,26.478-8.463l-5.84,3.381a7.4,7.4,0,0,0-6.151-2.925A7.656,7.656,0,0,0,78.046,42.2,7.661,7.661,0,0,0,85.868,50.2a7.447,7.447,0,0,0,6.16-2.925Z" transform="translate(-1.734 -0.522)" fill="#454241"/>
      <path id="Path_214" data-name="Path 214" d="M113.457,46.808c0,3.741,3.809,3.741,5.247,3.741.272,0,.554,0,.865-.019v5.879c-1.04.078-2.021.126-2.905.126-3.78,0-6.345-.768-7.841-2.351-1.389-1.477-2.041-3.828-2.041-7.385V34.585H102.03V28.269h4.751V22.342l6.666-2v7.929h6.112v6.316h-6.112V46.808Z" transform="translate(-2.603 -0.315)" fill="#454241"/>
      <path id="Path_215" data-name="Path 215" d="M151.555,27.65V56.8h-6.666V50.824l-2.021,2.769c-1.467,2.011-4.236,3.158-7.589,3.158a9.66,9.66,0,0,1-7-2.8,11.641,11.641,0,0,1-2.983-8.366V27.65h6.666V44.275c0,3.964,2.468,6.52,6.287,6.52,4.159,0,6.637-2.7,6.637-7.229V27.65Z" transform="translate(-3.262 -0.522)" fill="#454241"/>
      <path id="Path_216" data-name="Path 216" d="M172.916,27.942v7.676c-.136,0-.272-.01-.418-.01a9.231,9.231,0,0,0-5.655,1.768,7.476,7.476,0,0,0-2.837,6.248V56.8H157.34V27.65h6.666v5.2a21.46,21.46,0,0,1,3.906-3.547,9.493,9.493,0,0,1,2.322-.894C170.477,28.35,172.916,27.922,172.916,27.942Z" transform="translate(-4.169 -0.522)" fill="#454241"/>
      <path id="Path_217" data-name="Path 217" d="M205.205,42.2a14.9,14.9,0,0,0-3.974-10.426,13.671,13.671,0,0,0-9.989-4.13c-8.5,0-14.672,6.122-14.672,14.556a14.379,14.379,0,0,0,4.081,10.358,15.575,15.575,0,0,0,11.242,4.2c4.8,0,8.58-1.574,11.262-4.674l-5.276-3.032a9.226,9.226,0,0,1-5.869,1.992c-5.286,0-7.356-2.662-8.181-4.888l-.544-1.506H205.03A16.7,16.7,0,0,0,205.205,42.2Zm-21.97-1.972.389-1.409c.972-3.556,3.653-5.519,7.55-5.519a7.183,7.183,0,0,1,7.375,5.519l.389,1.409Z" transform="translate(-4.714 -0.522)" fill="#454241"/>
      <path id="Path_218" data-name="Path 218" d="M266.1,73.613H221.216a9.756,9.756,0,0,1-9.756-9.756V18.976a9.756,9.756,0,0,1,9.756-9.756H266.1a9.756,9.756,0,0,1,9.756,9.756V63.857A9.762,9.762,0,0,1,266.1,73.613Z" transform="translate(-5.702)" fill="#036f8b"/>
      <g id="Group_230" data-name="Group 230" transform="translate(215.834 27.05)">
        <g id="Group_228" data-name="Group 228" transform="translate(0 0)">
          <path id="Path_219" data-name="Path 219" d="M221.869,34.916l-.039.039Zm0,0V56.293H246.2v-6.85H229.788V27.57Z" transform="translate(-221.83 -27.57)" fill="#fff"/>
        </g>
        <g id="Group_229" data-name="Group 229" transform="translate(16.956)">
          <path id="Path_220" data-name="Path 220" d="M239.28,27.57h9.435l4.227,6.481,4.188-6.481h9.435l-9.6,14.818v6.646l-7.88,7.268V42.592Z" transform="translate(-239.28 -27.57)" fill="#fff"/>
        </g>
      </g>
    </g>
  </svg>